<svg version="1.0"
                                                xmlns="http://www.w3.org/2000/svg" height="15px"
                                                viewBox="0 0 175.000000 229.000000" preserveAspectRatio="xMidYMid meet">

                                                <g transform="translate(0.000000,229.000000) scale(0.100000,-0.100000)"
                                                    fill="#4680ff" stroke="none">
                                                    <path d="M51 2221 c-12 -16 -21 -34 -21 -39 0 -11 69 -27 78 -18 8 8 -17 86
                                       -28 86 -5 0 -18 -13 -29 -29z" />
                                                    <path d="M1219 2223 c-15 -41 -9 -51 29 -41 36 10 41 27 14 51 -25 23 -31 21
                                       -43 -10z" />
                                                    <path d="M492 2228 c-25 -25 -6 -68 30 -68 9 0 22 9 28 20 22 40 -26 80 -58
                                       48z" />
                                                    <path d="M831 2219 l-34 -21 29 -23 c43 -36 54 -32 54 20 0 25 -3 45 -7 45 -5
                                       0 -23 -9 -42 -21z" />
                                                    <path d="M1622 2205 c-7 -14 -18 -25 -27 -25 -22 0 -19 -18 4 -25 11 -3 23
                                       -15 26 -26 6 -18 9 -17 36 12 23 25 27 34 17 40 -7 5 -16 9 -20 9 -5 0 -8 6
                                       -8 14 0 26 -17 26 -28 1z" />
                                                    <path d="M958 1994 c-60 -71 -105 -131 -102 -139 7 -17 303 -90 314 -78 5 4
                                       -8 82 -29 173 -32 141 -40 165 -57 167 -13 2 -51 -35 -126 -123z" />
                                                    <path
                                                        d="M303 2035 c13 -42 20 -43 46 -6 24 33 19 41 -25 41 l-32 0 11 -35z" />
                                                    <path d="M1332 2054 c-12 -8 -22 -21 -22 -29 0 -8 10 -21 22 -29 28 -20 58 -4
                                       58 29 0 33 -30 49 -58 29z" />
                                                    <path d="M678 2030 c-9 -17 -24 -30 -33 -30 -24 0 -18 -17 9 -24 14 -3 28 -15
                                       31 -26 8 -25 22 -26 30 -1 3 11 15 23 26 26 25 8 24 22 -1 30 -11 3 -20 10
                                       -20 14 0 4 -6 15 -12 24 -12 15 -15 14 -30 -13z" />
                                                    <path d="M1590 1971 c0 -7 7 -26 16 -44 l17 -31 23 29 c29 36 30 45 7 45 -10
                                       0 -28 3 -40 6 -14 4 -23 2 -23 -5z" />
                                                    <path d="M82 1936 c-6 -14 -23 -31 -37 -38 -32 -14 -32 -24 0 -32 15 -4 30
                                       -18 36 -34 10 -26 11 -26 25 -8 8 11 14 23 14 28 0 4 11 10 25 14 32 8 32 20
                                       0 28 -16 4 -30 18 -38 38 l-13 31 -12 -27z" />
                                                    <path d="M1310 1821 c-28 -28 -29 -29 -23 -122 9 -147 -27 -248 -101 -283 -48
                                       -22 -400 -23 -496 0 -88 20 -190 71 -278 138 -85 64 -111 69 -153 27 -60 -60
                                       -30 -115 117 -211 97 -63 201 -106 313 -127 l91 -18 0 -227 0 -228 -80 -120
                                       c-111 -169 -110 -166 -81 -424 18 -157 19 -160 50 -188 43 -39 92 -38 132 1
                                       35 35 36 54 14 246 -8 72 -15 135 -15 142 0 6 37 68 83 137 l83 127 215 -322
                                       c117 -176 224 -330 238 -340 60 -48 151 4 151 85 0 17 -73 135 -210 338 l-210
                                       312 0 231 0 232 59 16 c104 29 192 119 227 230 19 62 30 215 20 282 -14 91
                                       -88 125 -146 66z" />
                                                    <path d="M550 1813 c-41 -15 -54 -78 -21 -107 11 -10 65 -32 122 -51 101 -33
                                       102 -33 124 -80 45 -93 110 -131 209 -123 96 8 169 80 182 179 11 83 6 87
                                       -167 131 -85 21 -160 40 -168 41 -18 2 -60 -58 -68 -95 -3 -16 -8 -28 -12 -28
                                       -3 0 -46 13 -96 29 -86 28 -120 51 -76 51 29 0 39 29 16 46 -20 15 -22 15 -45
                                       7z" />
                                                    <path d="M260 1780 c-13 -23 2 -60 25 -60 30 0 45 13 45 40 0 42 -51 56 -70
                                       20z" />
                                                    <path d="M1626 1707 c-3 -13 -20 -30 -38 -38 l-32 -16 29 -14 c17 -8 34 -24
                                       40 -37 13 -29 23 -28 35 3 5 14 13 25 18 25 4 0 17 6 28 14 18 14 18 15 -9 25
                                       -15 6 -32 22 -37 36 -12 31 -26 32 -34 2z" />
                                                    <path d="M24 1579 c4 -24 9 -45 12 -48 5 -5 64 49 64 60 0 4 -10 11 -22 14
                                       -66 19 -62 21 -54 -26z" />
                                                </g>
                                            </svg>